# xmcd
#
# Track frame offsets: 
#        150
#        16265
#        47220
#        81605
#        104465
#        125418
#        153180
#        174473
#        194335
#        217138
#        269270
#
# Disc length: 3749 seconds
#
# Revision: 5
# Processed by: cddbd v1.5.2PL0 Copyright (c) Steve Scherf et al.
# Submitted via: ExactAudioCopy v1.0b3
#
DISCID=9b0ea30b
DTITLE=Ronnie Earl and The Broadcasters - Still River
DYEAR=1993
DGENRE=Blues
TTITLE0=Blues For The West Side
TTITLE1=Time To Remember
TTITLE2=Kansas City Monarch
TTITLE3=Szeren
TTITLE4=Soul Seranade
TTITLE5=Equinox
TTITLE6=Chili Ba Hugh
TTITLE7=Eyes That Smile
TTITLE8=Wednesday Night At The Bull
TTITLE9=Rego Park Blues
TTITLE10=Derek's Peace
EXTD=YEAR: 1993
EXTT0=
EXTT1=
EXTT2=
EXTT3=
EXTT4=
EXTT5=
EXTT6=
EXTT7=
EXTT8=
EXTT9=
EXTT10=
PLAYORDER=
